<?xml version="1.0" encoding="utf-8"?>
<!-- Generator: Adobe Illustrator 23.0.2, SVG Export Plug-In . SVG Version: 6.00 Build 0)  -->
<svg version="1.1" id="Layer_1" xmlns="http://www.w3.org/2000/svg" xmlns:xlink="http://www.w3.org/1999/xlink" x="0px" y="0px"
     viewBox="0 0 2100 2100" style="enable-background:new 0 0 2100 2100;" xml:space="preserve">
<style type="text/css">
    .st0{fill-rule:evenodd;clip-rule:evenodd;fill:#0A0808;stroke:#221F20;stroke-width:0.4819;stroke-miterlimit:10;}
    .st1{fill-rule:evenodd;clip-rule:evenodd;fill:#FFFFFF;}
</style>
<rect x="0.14" y="-0.02" class="st0" width="2099.86" height="2099.87"/>
<path class="st1" d="M1164.23,485.69v-71.46v-61.51l-91.37-91.37v133.17l0,0v607.13v91.37v607.12l0,0v132.97l91.37-91.17v-133.17
    v-515.76h45.58h45.78l18.91,18.91l26.67,26.67l45.58,45.58v242.05v132.97l91.37-91.17l32.05-32.25
    c-20.11-28.07-32.05-62.7-32.05-100.13v-0.79v-59.32v-129.19l-53.55-53.34l-37.82-37.82l-7.76-7.96l7.76-7.77l37.82-37.82
    l53.55-53.55V819.11v-59.52c0-0.2,0-0.4,0-0.79c0-37.23,11.94-71.86,32.05-100.13l-32.05-32.05l-48.37-48.37l-43-42.99v50.95v82.21
    v241.86l-45.58,45.78l-26.67,26.67l-18.91,18.91h-45.78h-45.58V485.69z M1575.28,1133.02l42.8-40.01l48.56-45.78l-48.56-45.58
    l-42.8-40.01l-73.65-69.27c-1.39-1.2-2.78-2.19-4.18-3.38c-4.77-4.18-9.16-8.56-13.53-13.14v26.48v99.33v91.37v99.33l13.53,13.33
    c1.4-1.19,2.79-2.39,4.18-3.58L1575.28,1133.02z M481.66,1094.4l42.6,40.01c28.87,27.07,65.09,56.93,91.36,84.8V1094.4v-91.37
    V878.23c-6.77,7.17-13.93,13.74-21.89,19.51l-69.47,65.29l-42.6,40.01l-2.98,2.79l-45.59,43l45.59,42.8L481.66,1094.4z
    M935.91,1048.82l91.36-45.79V395.31V262.35l-91.36,91.17l-8.36,8.56l-37.22,37.22l-91.37,91.17l-45.39,45.59l-43.39,43.39
    l-47.98,47.78l-32.25,32.44c19.71,27.27,31.65,60.71,32.25,96.94c0.2,1.19,0.2,2.39,0.2,3.58l0,0c0,1.4,0,2.59-0.2,3.78v239.07
    v91.37v239.07c0.2,1.19,0.2,2.39,0.2,3.78l0,0c0,1.2,0,2.39-0.2,3.59c-0.59,36.22-12.54,69.67-32.25,96.94l32.25,32.44l47.98,47.77
    l43.39,43.39l45.39,45.58l91.37,91.17l37.22,37.22l8.36,8.56l91.36,91.17v-132.97V1094.4L935.91,1048.82z M935.91,486.48v516.55
    h-45.58h-91.37h-45.39V669.02l45.39-45.59l78.03-77.83l13.34-13.34l3.18-3.18L935.91,486.48z M872.8,1547.66l-73.84-73.65
    l-45.39-45.58V1094.4h45.39h91.37h45.58v516.56"/>
</svg>
